<?xml version="1.0" encoding="UTF-8"?>
<!DOCTYPE svg PUBLIC "-//W3C//DTD SVG 1.1//EN" "http://www.w3.org/Graphics/SVG/1.1/DTD/svg11.dtd">
<svg xmlns="http://www.w3.org/2000/svg" version="1.1" width="297px" height="265px" style="shape-rendering:geometricPrecision; text-rendering:geometricPrecision; image-rendering:optimizeQuality; fill-rule:evenodd; clip-rule:evenodd" xmlns:xlink="http://www.w3.org/1999/xlink">
<g><path style="opacity:1" fill="#010101" d="M 267.5,33.5 C 268.5,33.5 269.5,33.5 270.5,33.5C 267.413,42.4025 261.079,47.5692 251.5,49C 216.833,49.3333 182.167,49.6667 147.5,50C 128.232,54.6166 120.066,66.7833 123,86.5C 125.247,94.989 128.58,102.989 133,110.5C 133.903,111.701 135.069,112.535 136.5,113C 128.044,112.855 121.211,109.355 116,102.5C 103.701,85.7821 103.367,68.7821 115,51.5C 123.063,41.3847 133.563,35.8847 146.5,35C 187.002,34.8326 227.335,34.3326 267.5,33.5 Z"/></g>
<g><path style="opacity:1" fill="#020202" d="M 222.5,66.5 C 224.335,67.1223 225.502,68.4556 226,70.5C 241,108.833 256,147.167 271,185.5C 274.719,193.277 280.886,197.444 289.5,198C 289.167,198.333 288.833,198.667 288.5,199C 273.822,199.833 259.155,199.666 244.5,198.5C 249.474,197.359 253.141,194.526 255.5,190C 252.799,182.066 249.799,174.233 246.5,166.5C 230.603,165.176 214.77,165.176 199,166.5C 196.593,173.887 194.093,181.22 191.5,188.5C 192.198,192.033 194.198,194.533 197.5,196C 200.789,196.882 204.123,197.548 207.5,198C 207.167,198.333 206.833,198.667 206.5,199C 190.823,199.833 175.156,199.666 159.5,198.5C 167.817,196.421 173.65,191.421 177,183.5C 192.243,144.377 207.409,105.377 222.5,66.5 Z M 222.5,104.5 C 229,119.522 235,134.855 240.5,150.5C 229.167,151.833 217.833,151.833 206.5,150.5C 212.433,135.369 217.766,120.035 222.5,104.5 Z"/></g>
<g><path style="opacity:1" fill="#010101" d="M 89.5,71.5 C 94.1667,71.5 98.8333,71.5 103.5,71.5C 103.5,76.5 103.5,81.5 103.5,86.5C 84.8238,84.785 68.1571,89.6183 53.5,101C 37.0519,120.041 35.8852,139.874 50,160.5C 68.0017,180.886 88.835,184.719 112.5,172C 119.685,164.316 126.685,156.482 133.5,148.5C 122.515,147.334 111.515,147.168 100.5,148C 95.7909,148.469 91.2909,149.635 87,151.5C 87.396,147.388 89.2294,143.888 92.5,141C 97.7562,136.706 103.756,134.04 110.5,133C 123.833,132.333 137.167,132.333 150.5,133C 143.333,136.167 138.167,141.333 135,148.5C 134.667,165.5 134.333,182.5 134,199.5C 131.073,219.094 119.907,230.927 100.5,235C 77.5,235.667 54.5,235.667 31.5,235C 23.2957,233.398 16.9624,229.065 12.5,222C 39.1667,221.667 65.8333,221.333 92.5,221C 113.003,217.378 121.336,205.545 117.5,185.5C 112.235,189.762 106.235,192.595 99.5,194C 70.2512,197.064 47.7512,186.231 32,161.5C 18.4755,132.455 23.6422,107.288 47.5,86C 60.183,77.0511 74.183,72.2178 89.5,71.5 Z"/></g>
</svg>
